<svg width="151" height="40" viewBox="0 0 151 40" fill="none" xmlns="http://www.w3.org/2000/svg">
<path d="M88 10.9934V15.9934L103 9.99341V5.99341L88 -0.0065918V4.99341L97 7.99341L88 10.9934Z" fill="#008FFF"/>
<path d="M8 21.9978C3.90909 21.9978 1.27273 24.1477 1 27.9978H5C5.09091 26.7144 6.72727 24.9061 8 24.9978C9.72727 24.9978 10 26.2561 10 27.9978V28.9978H8C3.54545 28.9978 0 30.6893 0 34.9978C0 38.4813 2.90909 39.9978 6 39.9978C7.90909 40.0895 8.90909 39.4645 10 37.9978V39.9978H15V27.9978C14.9091 23.5976 12 21.9978 8 21.9978ZM7 36.9978C5.36364 36.9978 5 36.1895 5 34.9978V33.9978C5 32.4394 5.63636 31.9978 8 31.9978H10V33.9978C10.0909 35.8312 8.63636 36.9978 7 36.9978Z" fill="black"/>
<path d="M26 36C23.7011 36 23 34.4898 23 31C23 27.602 23.8851 26 26 26C27.6552 26 28.7241 27.3469 29 29H34C33.6322 24.5 29.8621 22 26 22C21.4023 22 18 25.1224 18 31C18 36.8776 21.2184 40 26 40C30.6897 40 33.6322 36.8571 34 33H30C29.6322 34.9286 27.6552 36 26 36Z" fill="black"/>
<path d="M44 36C41.6879 36 41 34.4898 41 31C41 27.602 41.8728 26 44 26C45.6647 26 46.7225 27.3469 47 29H52C51.6301 24.5 47.8844 22 44 22C39.3757 22 36 25.1224 36 31C36 36.8776 39.1908 40 44 40C48.7168 40 51.7225 36.8571 52 33H48C47.7225 34.9286 45.6647 36 44 36Z" fill="black"/>
<path d="M62 36C59.9091 36 59.1818 35.1066 59 32H70V30C70 24.335 66.2727 22 62 22C57.3636 22 54 25.2437 54 31C54 36.7563 57.0909 40 62 40C66.4545 40 69.5455 37.2893 70 34H65C64.8182 35.3706 63.4545 36.1827 62 36ZM62 25C63.9091 25 64.9091 26.4416 65 29H59C59.3636 26.2589 60.5455 25.0914 62 25Z" fill="black"/>
<path d="M83.5081 21.6892C81.2862 21.5965 79.2494 22.7091 78.231 24.6561V22.0601H73.4168V39.4906H78.231V28.3647C78.3236 26.7886 79.7123 25.4906 81.2862 25.5833C83.0452 25.5833 83.8785 26.5104 83.8785 28.5502V39.4906H88.7853V27.8085C88.7853 23.5435 86.6559 21.6892 83.5081 21.6892Z" fill="black"/>
<path d="M97.8586 33.9271V25.6754H101.192V22.0595H97.8586V16.7747L93.0444 18.8144V22.0595H90.915V25.6754H92.9518V34.4834C92.9518 38.0066 94.7109 39.7682 98.5067 39.7682C99.4325 39.7682 100.358 39.6755 101.284 39.3973V35.596C100.729 35.7814 100.173 35.8741 99.6176 35.8741C98.5067 35.8741 97.8586 35.2251 97.8586 33.9271Z" fill="black"/>
<path d="M114.615 32.9078V33.3714C114.523 34.9476 113.134 36.2456 111.56 36.1529C109.801 36.1529 109.06 35.2257 109.06 33.186V22.0601H104.153V33.835C104.153 37.9145 106.468 39.8615 109.616 39.8615C111.745 39.9542 113.689 38.8416 114.708 36.8946V39.4906H119.615V22.0601H114.708L114.615 32.9078Z" fill="black"/>
<path d="M127.947 25.2124V21.9674H123.132V39.3979H127.947V30.4045C127.947 27.5303 129.891 26.5104 133.224 26.5104V21.6892C130.817 21.6892 128.687 23.0799 127.947 25.2124Z" fill="black"/>
<path d="M151 29.8482C151 24.0998 147.389 21.6892 143.038 21.6892C138.316 21.6892 134.706 24.9343 134.706 30.7754V31.1462C134.706 36.9873 138.131 39.9542 143.131 39.9542C147.667 39.9542 150.352 37.4509 150.907 34.1131H146.371C146.001 35.5966 144.612 36.5237 143.131 36.431C141.001 36.431 139.705 35.2257 139.52 32.0734H150.815V29.8482H151ZM139.705 28.7356C140.075 25.8614 141.464 25.027 143.038 25.027C144.982 25.027 146.186 26.1396 146.278 28.7356H139.705Z" fill="black"/>
</svg>
