<svg width="205" height="30" viewBox="0 0 205 30" fill="none" xmlns="http://www.w3.org/2000/svg">
<path fill-rule="evenodd" clip-rule="evenodd" d="M48.4457 17.026C45.7673 17.026 44.4284 18.0617 44.4284 20.1319C44.4284 21.9341 45.3754 22.8352 47.269 22.8352C47.9956 22.8352 48.7798 22.6917 49.6218 22.4037C50.4634 22.1164 51.3148 21.6948 52.1758 21.1385V17.5437C50.8748 17.1986 49.6313 17.0262 48.4455 17.0262M48.8474 9.11768C52.1566 9.11768 53.811 10.5464 53.811 13.403V23.5827C53.811 23.8707 53.6675 24.0142 53.3811 24.0142H52.7786C52.4911 24.0142 52.338 23.8705 52.3192 23.5827L52.2045 22.3464C50.5589 23.6691 48.8374 24.3309 47.0396 24.3309C45.7194 24.3309 44.672 23.9522 43.8976 23.1947C43.1225 22.4378 42.7353 21.4262 42.7353 20.1606C42.7353 18.7617 43.2089 17.6588 44.1556 16.854C45.1026 16.0482 46.4086 15.6463 48.0725 15.6463C48.685 15.6463 49.354 15.7036 50.081 15.8183C50.7904 15.9293 51.4905 16.0928 52.1758 16.3074V13.8922C52.1758 12.7223 51.8979 11.8834 51.3437 11.3755C50.7884 10.8676 49.8704 10.6132 48.5889 10.6132C47.4031 10.6132 46.15 10.805 44.8301 11.1885C44.6195 11.2462 44.4522 11.2986 44.3282 11.3469C44.2031 11.3948 44.1031 11.4184 44.0269 11.4184C43.7969 11.4184 43.6823 11.2938 43.6823 11.0447V10.5847C43.6823 10.2968 43.8064 10.1058 44.0555 10.0095C44.7822 9.72154 45.562 9.50156 46.3936 9.34804C47.2264 9.19469 48.0436 9.11768 48.8474 9.11768Z" fill="#686868"/>
<mask id="mask0_1_76" style="mask-type:luminance" maskUnits="userSpaceOnUse" x="42" y="9" width="12" height="16">
<path fill-rule="evenodd" clip-rule="evenodd" d="M48.4053 17.1287C45.7453 17.1287 44.4155 18.1497 44.4155 20.1909C44.4155 21.968 45.3561 22.8563 47.2369 22.8563C47.9585 22.8563 48.7373 22.7149 49.5736 22.4309C50.4094 22.1478 51.255 21.7319 52.1101 21.1835V17.6391C50.818 17.2987 49.583 17.1287 48.4053 17.1287ZM48.8044 9.33105C52.0911 9.33105 53.7341 10.7397 53.7341 13.5563V23.5934C53.7341 23.8773 53.5918 24.0189 53.3071 24.0189H52.7088C52.4233 24.0189 52.2711 23.8773 52.2526 23.5934L52.1387 22.3743C50.5043 23.6785 48.7945 24.3311 47.009 24.3311C45.6977 24.3311 44.6576 23.9577 43.8884 23.2107C43.1187 22.4646 42.7341 21.4671 42.7341 20.2193C42.7341 18.8399 43.2045 17.7525 44.1446 16.9589C45.0852 16.1645 46.3823 15.7682 48.0349 15.7682C48.6431 15.7682 49.3075 15.8247 50.0296 15.9378C50.7512 16.0512 51.4447 16.212 52.1101 16.4201V14.0385C52.1101 12.8852 51.8341 12.058 51.2836 11.5571C50.7322 11.0565 49.8205 10.8057 48.5477 10.8057C47.37 10.8057 46.1254 10.9947 44.8146 11.3728C44.6054 11.4296 44.4393 11.4814 44.316 11.529C44.1918 11.5763 44.0925 11.5995 44.0167 11.5995C43.7884 11.5995 43.6747 11.4767 43.6747 11.231V10.7775C43.6747 10.4936 43.7978 10.3052 44.0453 10.2104C44.767 9.92638 45.5415 9.70958 46.3674 9.55823C47.1945 9.40687 48.0061 9.33105 48.8044 9.33105Z" fill="white"/>
</mask>
<g mask="url(#mask0_1_76)">
<path d="M40.4773 26.5762H55.991V7.08731H40.4773V26.5762Z" fill="#686868"/>
</g>
<path fill-rule="evenodd" clip-rule="evenodd" d="M74.2418 9.11768C75.5613 9.11768 76.5657 9.48719 77.2545 10.2254C77.9425 10.9634 78.2872 12.051 78.2872 13.4891V23.5829C78.2872 23.8707 78.1433 24.0142 77.8567 24.0142H77.0818C76.7951 24.0142 76.6515 23.8705 76.6515 23.5827V14.1793C76.6515 12.9141 76.4363 12.0035 76.0057 11.4471C75.5751 10.8912 74.8726 10.6132 73.8968 10.6132C72.0605 10.6132 70.3291 11.2173 68.7034 12.425C68.76 12.8733 68.7887 13.3247 68.7894 13.7765V23.5827C68.7894 23.8707 68.646 24.0142 68.3587 24.0142H67.5845C67.2977 24.0142 67.1539 23.8705 67.1539 23.5827V14.1793C67.1539 12.9141 66.9384 12.0035 66.5084 11.4471C66.078 10.8912 65.375 10.6132 64.3995 10.6132C62.6202 10.6132 60.918 11.1984 59.292 12.3677V23.5827C59.292 23.8707 59.148 24.0142 58.8617 24.0142H58.0868C57.7998 24.0142 57.6566 23.8705 57.6566 23.5827V9.98063C57.6566 9.69298 57.7998 9.54898 58.0868 9.54898H58.6608C58.9473 9.54898 59.1102 9.69298 59.148 9.98081L59.2635 11.1311C60.1241 10.4985 61.023 10.0047 61.9602 9.65006C62.8975 9.29525 63.8257 9.11768 64.7435 9.11768C66.5411 9.11768 67.7464 9.85654 68.3587 11.3322C69.2772 10.6041 70.2385 10.0523 71.2427 9.67862C72.2474 9.30477 73.2464 9.11768 74.2416 9.11768" fill="#686868"/>
<mask id="mask1_1_76" style="mask-type:luminance" maskUnits="userSpaceOnUse" x="57" y="9" width="22" height="16">
<path fill-rule="evenodd" clip-rule="evenodd" d="M74.5368 9.01465C75.88 9.01465 76.9024 9.3867 77.6035 10.13C78.3039 10.8731 78.6548 11.9683 78.6548 13.4165V23.5801C78.6548 23.87 78.5082 24.0146 78.2165 24.0146H77.4276C77.1359 24.0146 76.9898 23.87 76.9898 23.5801V14.1114C76.9898 12.8375 76.7706 11.9205 76.3323 11.3602C75.894 10.8004 75.1791 10.5206 74.1857 10.5206C72.3166 10.5206 70.5541 11.1288 68.8993 12.345C68.9577 12.8084 68.987 13.2624 68.987 13.7059V23.5801C68.987 23.87 68.8409 24.0146 68.5485 24.0146H67.7603C67.4684 24.0146 67.3221 23.87 67.3221 23.5801V14.1114C67.3221 12.8375 67.1028 11.9205 66.665 11.3602C66.227 10.8004 65.5113 10.5206 64.5184 10.5206C62.7072 10.5206 60.9745 11.1099 59.3194 12.2873V23.5801C59.3194 23.87 59.1729 24.0146 58.8814 24.0146H58.0928C57.8006 24.0146 57.6548 23.87 57.6548 23.5801V9.88376C57.6548 9.59392 57.8006 9.44906 58.0928 9.44906H58.6769C58.9686 9.44906 59.1344 9.59392 59.1729 9.88376L59.2904 11.0421C60.1664 10.4051 61.0814 9.9079 62.0354 9.55072C62.9895 9.19355 63.9343 9.01465 64.8685 9.01465C66.6983 9.01465 67.9252 9.75867 68.5485 11.2445C69.4834 10.5113 70.462 9.95575 71.4841 9.57949C72.5068 9.20308 73.5238 9.01465 74.5368 9.01465Z" fill="white"/>
</mask>
<g mask="url(#mask1_1_76)">
<path d="M55.3425 26.3069H80.9686V6.72272H55.3425V26.3069Z" fill="#686868"/>
</g>
<path fill-rule="evenodd" clip-rule="evenodd" d="M86.9229 17.026C84.2448 17.026 82.9056 18.0617 82.9056 20.1319C82.9056 21.9341 83.8526 22.8352 85.7465 22.8352C86.4728 22.8352 87.2572 22.6917 88.099 22.4037C88.9408 22.1164 89.7921 21.6948 90.6532 21.1385V17.5437C89.3522 17.1986 88.1085 17.026 86.9229 17.026ZM87.3246 9.11768C90.6338 9.11768 92.2884 10.5464 92.2884 13.403V23.5827C92.2884 23.8707 92.145 24.0142 91.8582 24.0142H91.2559C90.9685 24.0142 90.8153 23.8705 90.7964 23.5827L90.6821 22.3464C89.0362 23.6691 87.3149 24.3309 85.5168 24.3309C84.1966 24.3309 83.1496 23.9522 82.375 23.1947C81.5998 22.4378 81.2126 21.4262 81.2126 20.1606C81.2126 18.7617 81.6862 17.6588 82.633 16.854C83.5802 16.0482 84.8859 15.6463 86.5499 15.6463C87.1622 15.6463 87.8314 15.7036 88.5583 15.8183C89.2677 15.9293 89.9679 16.0927 90.6532 16.3074V13.8922C90.6532 12.7223 90.375 11.8834 89.8206 11.3755C89.2656 10.8676 88.3476 10.6132 87.0661 10.6132C85.8804 10.6132 84.6272 10.805 83.3074 11.1885C83.0967 11.2462 82.9298 11.2986 82.8056 11.3469C82.6803 11.3948 82.5805 11.4184 82.5041 11.4184C82.2743 11.4184 82.1596 11.2938 82.1596 11.0447V10.5847C82.1596 10.2968 82.2838 10.1058 82.5328 10.0095C83.2597 9.72154 84.0394 9.50156 84.8712 9.34804C85.7036 9.19469 86.521 9.11768 87.3246 9.11768Z" fill="#686868"/>
<mask id="mask2_1_76" style="mask-type:luminance" maskUnits="userSpaceOnUse" x="81" y="9" width="12" height="16">
<path fill-rule="evenodd" clip-rule="evenodd" d="M86.8819 17.1287C84.2221 17.1287 82.8921 18.1497 82.8921 20.1909C82.8921 21.968 83.8327 22.8563 85.7136 22.8563C86.435 22.8563 87.2141 22.7149 88.0501 22.4309C88.8861 22.1478 89.7315 21.7319 90.5867 21.1835V17.6391C89.2945 17.2987 88.0595 17.1287 86.8819 17.1287ZM87.2809 9.33105C90.5675 9.33105 92.2107 10.7397 92.2107 13.5563V23.5934C92.2107 23.8773 92.0682 24.0189 91.7836 24.0189H91.1853C90.9 24.0189 90.7478 23.8773 90.729 23.5934L90.6153 22.3743C88.9808 23.6785 87.2713 24.3311 85.4855 24.3311C84.1743 24.3311 83.1344 23.9577 82.3652 23.2107C81.5953 22.4646 81.2107 21.4671 81.2107 20.2193C81.2107 18.8399 81.6811 17.7525 82.6215 16.9589C83.562 16.1645 84.8589 15.7682 86.5114 15.7682C87.1196 15.7682 87.7842 15.8247 88.5061 15.9378C89.2279 16.0512 89.9214 16.212 90.5867 16.4201V14.0385C90.5867 12.8852 90.3106 12.058 89.7599 11.5571C89.2087 11.0565 88.297 10.8057 87.0242 10.8057C85.8466 10.8057 84.6019 10.9947 83.2912 11.3728C83.082 11.4296 82.9162 11.4814 82.7928 11.529C82.6684 11.5763 82.5693 11.5995 82.4933 11.5995C82.2652 11.5995 82.1513 11.4767 82.1513 11.231V10.7775C82.1513 10.4936 82.2746 10.3052 82.5219 10.2104C83.2438 9.92638 84.0183 9.70958 84.8442 9.55823C85.6711 9.40687 86.4828 9.33105 87.2809 9.33105Z" fill="white"/>
</mask>
<g mask="url(#mask2_1_76)">
<path d="M78.9533 26.5762H94.467V7.08731H78.9533V26.5762Z" fill="#686868"/>
</g>
<path fill-rule="evenodd" clip-rule="evenodd" d="M106.003 23.0078V23.5828C106.003 23.8708 105.86 24.0143 105.573 24.0143H95.4729C95.1856 24.0143 95.0423 23.8706 95.0423 23.5828V22.9789C95.0423 22.788 95.0665 22.6342 95.1144 22.5185C95.1616 22.4036 95.2524 22.27 95.3872 22.1165L104.11 10.9873H95.7597C95.4729 10.9873 95.3288 10.8432 95.3288 10.5559V9.9809C95.3288 9.6929 95.4729 9.54907 95.7597 9.54907H105.515C105.803 9.54907 105.946 9.6929 105.946 9.9809V10.5846C105.946 10.7381 105.921 10.8819 105.874 11.0161C105.826 11.1505 105.726 11.3034 105.573 11.4759L96.8214 22.5767H105.573C105.86 22.5767 106.003 22.7203 106.003 23.0077" fill="#686868"/>
<mask id="mask3_1_76" style="mask-type:luminance" maskUnits="userSpaceOnUse" x="95" y="9" width="12" height="16">
<path fill-rule="evenodd" clip-rule="evenodd" d="M106.001 23.0081V23.5831C106.001 23.871 105.858 24.0146 105.571 24.0146H95.471C95.1838 24.0146 95.0405 23.871 95.0405 23.5831V22.9793C95.0405 22.7883 95.0647 22.6345 95.1126 22.519C95.1598 22.404 95.2506 22.2703 95.3853 22.1169L104.108 10.9879H95.7578C95.471 10.9879 95.3271 10.8439 95.3271 10.5565V9.98149C95.3271 9.69357 95.471 9.5498 95.7578 9.5498H105.513C105.801 9.5498 105.944 9.69357 105.944 9.98149V10.5853C105.944 10.7388 105.919 10.8826 105.872 11.0168C105.824 11.1511 105.724 11.304 105.571 11.4766L96.8196 22.5771H105.571C105.858 22.5771 106.001 22.7207 106.001 23.0081Z" fill="white"/>
</mask>
<g mask="url(#mask3_1_76)">
<path d="M92.7689 26.291H108.274V7.27364H92.7689V26.291Z" fill="#686868"/>
</g>
<path fill-rule="evenodd" clip-rule="evenodd" d="M114.44 22.9503C117.749 22.9503 119.404 20.8893 119.404 16.7676C119.404 12.6649 117.749 10.6132 114.44 10.6132C111.13 10.6132 109.476 12.6649 109.476 16.7676C109.476 20.8893 111.13 22.9503 114.44 22.9503M114.44 24.4457C112.355 24.4457 110.724 23.7798 109.547 22.447C108.371 21.1146 107.783 19.2219 107.783 16.7676C107.783 14.3134 108.371 12.4252 109.547 11.1023C110.724 9.77917 112.355 9.11768 114.44 9.11768C116.524 9.11768 118.156 9.77917 119.332 11.1023C120.509 12.4252 121.097 14.3134 121.097 16.7676C121.097 19.2219 120.509 21.1146 119.332 22.447C118.156 23.7797 116.524 24.4455 114.44 24.4455" fill="#686868"/>
<mask id="mask4_1_76" style="mask-type:luminance" maskUnits="userSpaceOnUse" x="107" y="9" width="15" height="16">
<path fill-rule="evenodd" clip-rule="evenodd" d="M114.437 22.9503C117.746 22.9503 119.401 20.8894 119.401 16.7678C119.401 12.6651 117.746 10.6137 114.437 10.6137C111.128 10.6137 109.474 12.6651 109.474 16.7678C109.474 20.8894 111.128 22.9503 114.437 22.9503ZM114.437 24.4456C112.352 24.4456 110.721 23.7799 109.545 22.4471C108.369 21.1148 107.781 19.2221 107.781 16.7678C107.781 14.3137 108.369 12.4254 109.545 11.1028C110.721 9.7796 112.352 9.11814 114.437 9.11814C116.522 9.11814 118.153 9.7796 119.329 11.1028C120.506 12.4254 121.094 14.3137 121.094 16.7678C121.094 19.2221 120.506 21.1148 119.329 22.4471C118.153 23.7799 116.522 24.4456 114.437 24.4456Z" fill="white"/>
</mask>
<g mask="url(#mask4_1_76)">
<path d="M105.509 26.7227H123.367V6.84271H105.509V26.7227Z" fill="#686868"/>
</g>
<path fill-rule="evenodd" clip-rule="evenodd" d="M131.829 9.11768C133.244 9.11768 134.315 9.48719 135.043 10.2254C135.769 10.9634 136.133 12.051 136.133 13.4891V23.5829C136.133 23.8707 135.989 24.0142 135.703 24.0142H134.928C134.641 24.0142 134.498 23.8705 134.498 23.5827V14.1793C134.498 12.9141 134.258 12.0035 133.78 11.4471C133.302 10.8912 132.536 10.6132 131.484 10.6132C130.471 10.6132 129.505 10.7718 128.586 11.0878C127.668 11.4042 126.769 11.8599 125.889 12.4539V23.5827C125.889 23.8707 125.745 24.0142 125.459 24.0142H124.684C124.397 24.0142 124.254 23.8705 124.254 23.5827V9.98063C124.254 9.69298 124.397 9.54898 124.684 9.54898H125.258C125.545 9.54898 125.707 9.69298 125.745 9.98081L125.861 11.2173C126.779 10.5464 127.754 10.0287 128.788 9.66408C129.82 9.29993 130.834 9.11768 131.829 9.11768Z" fill="#686868"/>
<mask id="mask5_1_76" style="mask-type:luminance" maskUnits="userSpaceOnUse" x="124" y="9" width="13" height="16">
<path fill-rule="evenodd" clip-rule="evenodd" d="M131.826 9.11839C133.241 9.11839 134.312 9.48787 135.039 10.2261C135.766 10.964 136.129 12.0516 136.129 13.4898V23.5831C136.129 23.871 135.986 24.0146 135.699 24.0146H134.924C134.637 24.0146 134.494 23.871 134.494 23.5831V14.1798C134.494 12.9148 134.254 12.0042 133.776 11.4477C133.299 10.8918 132.533 10.6139 131.481 10.6139C130.467 10.6139 129.501 10.7725 128.583 11.0885C127.665 11.4049 126.766 11.8606 125.886 12.4545V23.5831C125.886 23.871 125.742 24.0146 125.456 24.0146H124.681C124.394 24.0146 124.251 23.871 124.251 23.5831V9.98149C124.251 9.69366 124.394 9.5498 124.681 9.5498H125.255C125.542 9.5498 125.704 9.69366 125.742 9.98149L125.858 11.218C126.776 10.5471 127.751 10.0294 128.784 9.66482C129.817 9.30065 130.831 9.11839 131.826 9.11839Z" fill="white"/>
</mask>
<g mask="url(#mask5_1_76)">
<path d="M121.978 26.291H138.402V6.8423H121.978V26.291Z" fill="#686868"/>
</g>
<path fill-rule="evenodd" clip-rule="evenodd" d="M199.634 17.0257C196.956 17.0257 195.617 18.0614 195.617 20.1315C195.617 21.9338 196.565 22.8348 198.458 22.8348C199.185 22.8348 199.969 22.6913 200.811 22.4033C201.653 22.116 202.504 21.6944 203.365 21.1382V17.5434C202.064 17.1982 200.82 17.0257 199.634 17.0257ZM200.036 9.11732C203.346 9.11732 205 10.5461 205 13.4027V23.5823C205 23.8703 204.857 24.0138 204.57 24.0138H203.967C203.68 24.0138 203.527 23.8702 203.508 23.5823L203.394 22.3461C201.748 23.6687 200.026 24.3305 198.229 24.3305C196.908 24.3305 195.861 23.9519 195.087 23.1943C194.312 22.4374 193.924 21.4258 193.924 20.1603C193.924 18.7613 194.398 17.6585 195.345 16.8537C196.292 16.0478 197.597 15.6459 199.262 15.6459C199.874 15.6459 200.543 15.7032 201.27 15.818C201.979 15.9289 202.68 16.0924 203.365 16.3071V13.8918C203.365 12.722 203.087 11.8831 202.532 11.3751C201.977 10.8673 201.06 10.6129 199.778 10.6129C198.592 10.6129 197.339 10.8046 196.019 11.1882C195.809 11.2458 195.641 11.2983 195.517 11.3465C195.392 11.3945 195.292 11.418 195.216 11.418C194.986 11.418 194.871 11.2934 194.871 11.0443V10.5843C194.871 10.2965 194.995 10.1054 195.245 10.0092C195.971 9.72118 196.751 9.5012 197.583 9.34768C198.415 9.19434 199.233 9.11732 200.036 9.11732ZM186.1 17.6299L181.939 23.6973C181.786 23.9089 181.585 24.014 181.337 24.014H180.533C180.284 24.014 180.16 23.9089 180.16 23.6973C180.16 23.6211 180.227 23.496 180.361 23.3239L185.268 16.4795L180.791 10.2103C180.677 10.0377 180.619 9.92299 180.619 9.86553C180.619 9.65437 180.744 9.5488 180.992 9.5488H181.882C182.13 9.5488 182.331 9.65437 182.484 9.86553L186.244 15.2144L190.002 9.86553C190.155 9.65437 190.347 9.5488 190.576 9.5488H191.35C191.599 9.5488 191.724 9.65437 191.724 9.86553C191.724 9.94237 191.667 10.0663 191.552 10.239L187.133 16.3645L192.04 23.3239C192.155 23.496 192.212 23.6211 192.212 23.6973C192.212 23.9089 192.087 24.014 191.838 24.014H190.949C190.72 24.014 190.528 23.9089 190.375 23.6973L186.1 17.6299ZM172.848 10.5843C171.414 10.5843 170.28 11.0059 169.448 11.8495C168.616 12.6932 168.114 13.9299 167.942 15.5589C168.674 15.7484 169.416 15.8926 170.166 15.9905C170.901 16.0866 171.643 16.1342 172.389 16.1342C173.824 16.1342 174.876 15.9235 175.546 15.5016C176.215 15.0798 176.55 14.4088 176.55 13.4887C176.55 11.552 175.316 10.5843 172.848 10.5843ZM176.493 22.4608C176.741 22.3847 176.923 22.3223 177.038 22.2739C177.153 22.2263 177.258 22.2024 177.353 22.2024C177.583 22.2024 177.697 22.3274 177.697 22.5762V22.9787C177.697 23.2859 177.592 23.4868 177.382 23.5823C176.004 24.1575 174.541 24.4455 172.992 24.4455C170.792 24.4455 169.113 23.808 167.956 22.533C166.798 21.2583 166.22 19.3939 166.22 16.9398C166.22 15.7318 166.373 14.6435 166.679 13.6756C166.985 12.7078 167.429 11.8831 168.013 11.2022C168.597 10.522 169.309 10.0045 170.151 9.6497C170.993 9.29489 171.94 9.11732 172.992 9.11732C174.656 9.11732 175.942 9.5012 176.851 10.2676C177.759 11.0352 178.214 12.1081 178.214 13.4887C178.214 14.8503 177.731 15.8517 176.765 16.4942C175.799 17.1359 174.302 17.4575 172.274 17.4575C171.547 17.4575 170.815 17.4139 170.08 17.3279C169.337 17.2405 168.602 17.0915 167.884 16.8822C167.884 18.9522 168.319 20.4813 169.19 21.4687C170.06 22.457 171.366 22.9499 173.107 22.9499C174.235 22.9499 175.364 22.7871 176.493 22.4608ZM160.866 3.16453C160.866 2.87722 161.009 2.7334 161.297 2.7334H162.071C162.358 2.7334 162.501 2.8774 162.501 3.1647V21.512C162.501 21.9338 162.583 22.231 162.746 22.4033C162.908 22.5764 163.2 22.6626 163.621 22.6626C163.735 22.6626 163.865 22.6529 164.008 22.6337C164.151 22.6145 164.271 22.605 164.367 22.605C164.634 22.605 164.769 22.7391 164.769 23.0074V23.5538C164.769 23.784 164.644 23.9278 164.395 23.9851C164.281 24.0233 164.113 24.0519 163.893 24.0713C163.673 24.09 163.477 24.1002 163.305 24.1002C162.54 24.1002 161.942 23.875 161.511 23.4238C161.081 22.9741 160.866 22.3461 160.866 21.5407V3.16453ZM151.713 17.0257C149.035 17.0257 147.696 18.0614 147.696 20.1315C147.696 21.9338 148.643 22.8348 150.537 22.8348C151.263 22.8348 152.047 22.6913 152.889 22.4033C153.731 22.116 154.582 21.6944 155.443 21.1382V17.5434C154.142 17.1982 152.899 17.0257 151.713 17.0257ZM152.114 9.11732C155.424 9.11732 157.078 10.5461 157.078 13.4027V23.5823C157.078 23.8703 156.935 24.0138 156.649 24.0138H156.046C155.759 24.0138 155.605 23.8702 155.586 23.5823L155.472 22.3461C153.826 23.6687 152.105 24.3305 150.307 24.3305C148.987 24.3305 147.939 23.9519 147.165 23.1943C146.39 22.4374 146.003 21.4258 146.003 20.1603C146.003 18.7613 146.476 17.6585 147.423 16.8537C148.37 16.0478 149.676 15.6459 151.34 15.6459C151.952 15.6459 152.621 15.7032 153.348 15.818C154.058 15.9289 154.758 16.0924 155.443 16.3071V13.8918C155.443 12.722 155.165 11.8831 154.611 11.3751C154.056 10.8673 153.138 10.6129 151.856 10.6129C150.67 10.6129 149.417 10.8046 148.098 11.1882C147.887 11.2458 147.72 11.2983 147.596 11.3465C147.47 11.3945 147.37 11.418 147.294 11.418C147.064 11.418 146.95 11.2934 146.95 11.0443V10.5843C146.95 10.2965 147.074 10.1054 147.323 10.0092C148.05 9.72118 148.829 9.5012 149.661 9.34768C150.494 9.19434 151.311 9.11732 152.114 9.11732Z" fill="#686868"/>
<mask id="mask6_1_76" style="mask-type:luminance" maskUnits="userSpaceOnUse" x="145" y="2" width="60" height="23">
<path fill-rule="evenodd" clip-rule="evenodd" d="M199.63 17.0261C196.952 17.0261 195.613 18.0616 195.613 20.1318C195.613 21.934 196.56 22.835 198.454 22.835C199.18 22.835 199.964 22.6916 200.806 22.4035C201.648 22.1164 202.499 21.6946 203.36 21.1385V17.5438C202.059 17.1985 200.816 17.0261 199.63 17.0261ZM200.032 9.11789C203.341 9.11789 204.995 10.5465 204.995 13.403V23.5826C204.995 23.8704 204.852 24.0141 204.565 24.0141H203.963C203.676 24.0141 203.522 23.8704 203.504 23.5826L203.389 22.3462C201.744 23.6688 200.022 24.3306 198.224 24.3306C196.904 24.3306 195.857 23.952 195.082 23.1944C194.307 22.4377 193.92 21.4261 193.92 20.1606C193.92 18.7616 194.394 17.6588 195.34 16.8539C196.287 16.0482 197.593 15.6463 199.257 15.6463C199.869 15.6463 200.539 15.7036 201.266 15.8184C201.992 15.9334 202.691 16.0964 203.36 16.3075V13.8921C203.36 12.7225 203.083 11.8835 202.528 11.3756C201.973 10.8678 201.055 10.6134 199.773 10.6134C198.588 10.6134 197.335 10.8052 196.015 11.1886C195.804 11.2462 195.637 11.2988 195.513 11.347C195.388 11.3949 195.288 11.4185 195.212 11.4185C194.982 11.4185 194.867 11.294 194.867 11.0448V10.5848C194.867 10.2969 194.991 10.1058 195.24 10.0097C195.967 9.72166 196.747 9.50179 197.579 9.34828C198.411 9.19478 199.228 9.11789 200.032 9.11789ZM186.096 17.6301L181.935 23.6974C181.782 23.909 181.581 24.0141 181.333 24.0141H180.529C180.28 24.0141 180.156 23.909 180.156 23.6974C180.156 23.6213 180.223 23.4962 180.357 23.324L185.264 16.4798L180.787 10.2108C180.673 10.0383 180.615 9.92358 180.615 9.86598C180.615 9.65485 180.74 9.5493 180.988 9.5493H181.878C182.126 9.5493 182.327 9.65485 182.48 9.86598L186.24 15.2148L189.998 9.86598C190.15 9.65485 190.343 9.5493 190.572 9.5493H191.346C191.595 9.5493 191.719 9.65485 191.719 9.86598C191.719 9.94294 191.662 10.0669 191.547 10.2395L187.128 16.3649L192.035 23.324C192.15 23.4962 192.207 23.6213 192.207 23.6974C192.207 23.909 192.082 24.0141 191.834 24.0141H190.945C190.715 24.0141 190.524 23.909 190.371 23.6974L186.096 17.6301ZM172.844 10.5848C171.41 10.5848 170.276 11.0063 169.444 11.8499C168.612 12.6936 168.11 13.9302 167.938 15.5593C168.684 15.7516 169.426 15.8954 170.162 15.9908C170.898 16.0869 171.639 16.1344 172.385 16.1344C173.82 16.1344 174.872 15.9239 175.542 15.502C176.211 15.0802 176.546 14.4091 176.546 13.4892C176.546 11.5526 175.312 10.5848 172.844 10.5848ZM176.489 22.4611C176.737 22.3848 176.919 22.3226 177.034 22.2741C177.149 22.2265 177.254 22.2026 177.349 22.2026C177.579 22.2026 177.694 22.3275 177.694 22.5766V22.9788C177.694 23.286 177.589 23.487 177.378 23.5826C176 24.1576 174.538 24.4456 172.988 24.4456C170.788 24.4456 169.109 23.8082 167.952 22.533C166.795 21.2585 166.217 19.3942 166.217 16.9401C166.217 15.7322 166.37 14.6439 166.675 13.6762C166.981 12.7081 167.426 11.8835 168.01 11.2027C168.593 10.5226 169.306 10.0049 170.147 9.65026C170.989 9.29556 171.936 9.11789 172.988 9.11789C174.652 9.11789 175.938 9.50179 176.847 10.2681C177.756 11.0356 178.21 12.1085 178.21 13.4892C178.21 14.8506 177.727 15.8521 176.761 16.4944C175.795 17.1362 174.298 17.4578 172.271 17.4578C171.543 17.4578 170.811 17.4142 170.076 17.3283C169.339 17.2421 168.607 17.0936 167.88 16.8825C167.88 18.9526 168.315 20.4816 169.186 21.4689C170.057 22.457 171.362 22.95 173.103 22.95C174.231 22.95 175.36 22.7875 176.489 22.4611ZM160.863 3.16533C160.863 2.87803 161.006 2.73403 161.293 2.73403H162.068C162.354 2.73403 162.498 2.87803 162.498 3.16533V21.5123C162.498 21.934 162.579 22.2311 162.742 22.4035C162.904 22.5766 163.196 22.6628 163.617 22.6628C163.732 22.6628 163.861 22.6531 164.005 22.634C164.148 22.6146 164.267 22.6051 164.363 22.6051C164.631 22.6051 164.765 22.7394 164.765 23.0076V23.5539C164.765 23.7842 164.64 23.928 164.392 23.9852C164.277 24.0235 164.109 24.0521 163.89 24.0715C163.669 24.0901 163.474 24.1003 163.301 24.1003C162.536 24.1003 161.938 23.8752 161.508 23.424C161.078 22.9744 160.863 22.3462 160.863 21.5411V3.16533ZM151.71 17.0261C149.032 17.0261 147.692 18.0616 147.692 20.1318C147.692 21.934 148.64 22.835 150.533 22.835C151.26 22.835 152.044 22.6916 152.886 22.4035C153.728 22.1164 154.579 21.6946 155.44 21.1385V17.5438C154.139 17.1985 152.895 17.0261 151.71 17.0261ZM152.111 9.11789C155.421 9.11789 157.075 10.5465 157.075 13.403V23.5826C157.075 23.8704 156.932 24.0141 156.645 24.0141H156.042C155.755 24.0141 155.602 23.8704 155.583 23.5826L155.469 22.3462C153.823 23.6688 152.101 24.3306 150.304 24.3306C148.984 24.3306 147.936 23.952 147.162 23.1944C146.387 22.4377 146 21.4261 146 20.1606C146 18.7616 146.473 17.6588 147.42 16.8539C148.367 16.0482 149.673 15.6463 151.337 15.6463C151.949 15.6463 152.618 15.7036 153.345 15.8184C154.072 15.9334 154.77 16.0964 155.44 16.3075V13.8921C155.44 12.7225 155.162 11.8835 154.607 11.3756C154.052 10.8678 153.134 10.6134 151.853 10.6134C150.667 10.6134 149.414 10.8052 148.094 11.1886C147.884 11.2462 147.716 11.2988 147.593 11.347C147.467 11.3949 147.367 11.4185 147.291 11.4185C147.061 11.4185 146.947 11.294 146.947 11.0448V10.5848C146.947 10.2969 147.071 10.1058 147.32 10.0097C148.047 9.72166 148.826 9.50179 149.658 9.34828C150.49 9.19478 151.308 9.11789 152.111 9.11789Z" fill="white"/>
</mask>
<g mask="url(#mask6_1_76)">
<path d="M143.727 26.7219H207.268V0.458113H143.727V26.7219Z" fill="#686868"/>
</g>
<path fill-rule="evenodd" clip-rule="evenodd" d="M14.9666 0C6.70087 0 0 6.71588 0 15C0 22.6062 5.64882 28.889 12.9712 29.8669V26.8445C12.9712 25.9921 12.4349 25.2262 11.6287 24.955C7.4039 23.5327 4.38149 19.4856 4.49293 14.747C4.62839 8.97799 9.31725 4.44235 15.0746 4.5005C20.8108 4.55866 25.4434 9.23708 25.4434 15C25.4434 15.1314 25.4401 15.262 25.4352 15.392L25.4321 15.4798C25.4266 15.6002 25.4191 15.7206 25.4097 15.8408C25.4069 15.8789 25.4031 15.917 25.3996 15.955C25.384 16.1325 25.3636 16.3095 25.3383 16.4859C25.3326 16.5284 25.3267 16.5712 25.3203 16.6136C24.0376 25.0817 13.0327 29.8411 12.9724 29.8673C13.625 29.9541 14.2905 29.9998 14.9666 29.9998C23.2325 29.9998 29.9333 23.2843 29.9333 15C29.9333 6.71588 23.2325 0 14.9666 0Z" fill="#5FCAF4"/>
<mask id="mask7_1_76" style="mask-type:luminance" maskUnits="userSpaceOnUse" x="0" y="0" width="30" height="30">
<path fill-rule="evenodd" clip-rule="evenodd" d="M14.9662 0.000862122C6.70066 0.000862122 0 6.71651 0 15.0005C0 22.6064 5.64872 28.8891 12.9708 29.867V26.8446C12.9708 25.9923 12.4345 25.2265 11.6284 24.9553C7.40374 23.5329 4.38144 19.486 4.49275 14.7474C4.62827 8.9787 9.31702 4.44304 15.0743 4.50119C20.8105 4.55935 25.4427 9.23776 25.4427 15.0005C25.4427 15.1319 25.4395 15.2626 25.4347 15.3925C25.4335 15.4217 25.4326 15.451 25.4314 15.4803C25.4259 15.601 25.4185 15.7216 25.4091 15.8414C25.4063 15.8795 25.4024 15.9175 25.399 15.9556C25.3916 16.0389 25.3831 16.1221 25.3736 16.2053C25.363 16.2995 25.3508 16.3931 25.3377 16.4863C25.3319 16.529 25.3262 16.5717 25.3197 16.614C24.037 25.082 13.0324 29.8413 12.972 29.8673C13.6331 29.9556 14.2993 29.9999 14.9662 30C23.2319 30 29.9325 23.2845 29.9325 15.0005C29.9325 6.71651 23.2319 0.000862122 14.9662 0.000862122Z" fill="white"/>
</mask>
<g mask="url(#mask7_1_76)">
<path d="M-2.27238 32.2764H31.7276V-1.72363H-2.27238V32.2764Z" fill="#5FCAF4"/>
</g>
</svg>
