<svg width="177" height="30" viewBox="0 0 177 30" fill="none" xmlns="http://www.w3.org/2000/svg">
<mask id="mask0_1_28" style="mask-type:luminance" maskUnits="userSpaceOnUse" x="0" y="0" width="177" height="30">
<path d="M0 0H177V30H0V0Z" fill="white"/>
</mask>
<g mask="url(#mask0_1_28)">
<mask id="mask1_1_28" style="mask-type:luminance" maskUnits="userSpaceOnUse" x="0" y="0" width="177" height="30">
<path d="M0 30H177V0H0V30Z" fill="white"/>
</mask>
<g mask="url(#mask1_1_28)">
<path d="M69 4C69 2.61775 69.6231 1 71 1C72.3816 1 74 2.61775 74 4C74 5.38069 72.3816 6 71 6C69.6231 6 69 5.38051 69 4Z" fill="#273B7D"/>
<path d="M112 22C112 20.6178 112.623 19 114 19C115.381 19 117 20.6178 117 22C117 23.3788 115.381 24 114 24C112.623 24 112 23.3789 112 22Z" fill="#499FDD"/>
<path d="M25 20C22.7069 20 21 18.5489 21 16C21 13.4516 22.7069 12 25 12C27.3063 12 29 13.4516 29 16C29 18.5893 27.3398 20 25 20ZM25 8C20.1486 8 17 11.285 17 16C17 20.715 20.1486 24 25 24C29.8695 24 34 20.715 34 16C34 11.285 29.8695 8 25 8ZM64 16C63.8114 15.6524 63.2303 15.2336 63 15C63.2227 14.7701 63.7805 14.316 64 14L68 8H63L60 13C59.8179 13.2615 59.5503 13 59 13H58V4C58 2.15609 57.267 2 56 2H53V24H58V17C58.5249 17 58.8361 17.7205 59 18L62 22C62.7096 23.2744 63.6696 24 65 24H68L66 20L64 16ZM86 8C83.6576 8 82.8375 9.13807 82 10H81V9C80.7539 8.07668 80.2481 8 79 8H77V24H81V17C81 16.2917 81.8088 15.5606 82 15C82.5092 13.303 83.225 12 85 12C86.4277 12 87 13.0929 87 15V21C87 22.6278 88.337 24 90 24H92V14C92 10.0287 89.7437 8 86 8ZM72 8H70V20V24H72C71.9709 24 72.0291 24 72 24H73H74V10C74 8.39273 73.6224 8 72 8ZM43 20C40.7071 20 39 18.5489 39 16C39 13.4516 40.7071 12 43 12C45.3015 12 47 13.4516 47 16C47 18.5893 45.34 20 43 20ZM43 8C38.1438 8 35 11.285 35 16C35 20.715 38.1438 24 43 24C47.8645 24 52 20.715 52 16C52 11.285 47.8645 8 43 8Z" fill="#273B7D"/>
</g>
</g>
<mask id="mask2_1_28" style="mask-type:luminance" maskUnits="userSpaceOnUse" x="0" y="0" width="177" height="30">
<path d="M0 0H177V30H0V0Z" fill="white"/>
</mask>
<g mask="url(#mask2_1_28)">
<mask id="mask3_1_28" style="mask-type:luminance" maskUnits="userSpaceOnUse" x="0" y="1" width="177" height="29">
<path d="M0 1H177V30H0V1Z" fill="white"/>
</mask>
<g mask="url(#mask3_1_28)">
<mask id="mask4_1_28" style="mask-type:luminance" maskUnits="userSpaceOnUse" x="0" y="0" width="177" height="30">
<path d="M0 30H177V0H0V30Z" fill="white"/>
</mask>
<g mask="url(#mask4_1_28)">
<path d="M142 20C139.678 20 139 18.6622 139 16C139 13.3384 139.678 11 142 11C144.332 11 146 13.3384 146 16C146 18.7043 144.371 20 142 20ZM142 7C137.082 7 134 11.0755 134 16C134 20.9245 137.082 24 142 24C146.928 24 151 20.9245 151 16C151 11.0755 146.928 7 142 7Z" fill="#499FDD"/>
<path d="M102 19C99.452 19 99 17.0734 99 15C99 14.0865 99.022 11 102 11C103.48 11 105 11.378 105 15C105 18.4163 103.462 19 102 19ZM108 7C107.116 7 106.341 7.35913 106 8V9V8C105.248 7.35198 103.19 7 101 7C96.642 7 94 10.1519 94 15C94 19.8423 96.6562 23 101 23C102.484 23 104.071 22.7005 105 22C105 24.1735 103.56 26 101 26C99.7559 26 98.7572 25.2734 98 25C97.0111 24.7031 96.4009 25.0127 96 26V27L95 28L96 29C97.6384 29.8654 99.0721 30 101 30C104.969 30 110 27.6906 110 22V7H108Z" fill="#273B7D"/>
</g>
</g>
</g>
<mask id="mask5_1_28" style="mask-type:luminance" maskUnits="userSpaceOnUse" x="0" y="0" width="177" height="30">
<path d="M0 0H177V30H0V0Z" fill="white"/>
</mask>
<g mask="url(#mask5_1_28)">
<mask id="mask6_1_28" style="mask-type:luminance" maskUnits="userSpaceOnUse" x="0" y="0" width="177" height="30">
<path d="M0 30H177V0H0V30Z" fill="white"/>
</mask>
<g mask="url(#mask6_1_28)">
<path d="M8 19.9999H4V14.9999C4 14.0111 5.14977 14.1182 6 13.9999H8C9.88996 13.9999 10.9986 15.0781 11 16.9999C10.9986 18.9722 9.92031 19.9988 8 19.9999ZM4 7.99991V5.99991C4 4.93416 5.00707 5.06505 6 4.99991H8C9.70394 4.99991 11 5.29972 11 6.99991C11 8.29654 9.96324 9.99991 8 9.99991H4V7.99991ZM13 11.9999V10.9999C13.7126 10.3892 15 9.37193 15 6.99991C15 3.37038 12.3718 0.99991 8 0.99991H3H2C0.703869 1.04732 0.0145024 1.7 0 2.99991V23.9999H2C1.99807 23.9988 2.0058 24.0011 2 23.9999H8C12.8599 23.9999 16 21.0837 16 16.9999C16 14.8013 14.7039 12.9558 13 11.9999Z" fill="#273B7D"/>
<path d="M172 7C170.082 7 168.19 7.4838 167 9L166 10V9C165.144 7.42853 164.049 7 162 7C159.852 7 157.669 8.28264 157 9C156.756 8.0959 156.211 7 155 7H153V24H157V16C157 15.3713 156.844 15.6504 157 15C157.422 13.2656 159.054 10.8134 161 11C162.2 11.1158 163 12.1963 163 14V24H167V16C167 15.2144 166.824 14.5902 167 14C167.358 12.3442 169.122 11 171 11C172.359 11 173 11.9189 173 14V21C173 22.643 173.369 24 175 24H177V13C177 8.85318 175.568 7 172 7ZM131 18C130.987 18.016 129.501 20 127 20C124.722 20 122 18.1416 122 15C122 12.2875 124.446 11 127 11C127.83 11 128.852 11.4967 129 12C129.34 13.141 129.797 13 130 13H133V11C133 8.19301 129.387 7 127 7C121.897 7 118 11.0738 118 16C118 20.9242 121.95 24 127 24C131.382 24 132.978 21.0289 133 21H134L132 18H131Z" fill="#499FDD"/>
</g>
</g>
</svg>
