<svg width="124" height="40" viewBox="0 0 124 40" fill="none" xmlns="http://www.w3.org/2000/svg">
<path d="M52.3534 21C52.3534 26.7574 47.8635 31 42.3534 31C36.8433 31 32.3534 26.7574 32.3534 21C32.3534 15.202 36.8433 11 42.3534 11C47.8635 11 52.3534 15.202 52.3534 21ZM48.3534 21C48.3534 17.4022 45.3736 15 42.3534 15C39.3332 15 36.3534 17.4022 36.3534 21C36.3534 24.5618 39.3332 27 42.3534 27C45.3736 27 48.3534 24.5573 48.3534 21Z" fill="#EA4335"/>
<path d="M74.3534 21C74.3534 26.7574 69.8635 31 64.3534 31C58.8433 31 54.3534 26.7574 54.3534 21C54.3534 15.2065 58.8433 11 64.3534 11C69.8635 11 74.3534 15.202 74.3534 21ZM70.3534 21C70.3534 17.4022 67.3736 15 64.3534 15C61.3332 15 58.3534 17.4022 58.3534 21C58.3534 24.5618 61.3332 27 64.3534 27C67.3736 27 70.3534 24.5573 70.3534 21Z" fill="#FBBC05"/>
<path d="M95.3534 12V30C95.3534 37.3956 91.4564 40 86.3534 40C81.5498 40 78.4437 36.6548 77.3534 34L81.3534 33C82.0281 34.6299 83.6902 36 86.3534 36C89.6199 36 91.3534 33.8333 91.3534 30V29C90.3793 30.2145 87.7217 31 85.3534 31C80.3978 31 76.3534 26.6122 76.3534 21C76.3534 15.3472 80.3978 11 85.3534 11C87.7172 11 90.3748 11.8216 91.3534 13V12H95.3534ZM91.3534 21C91.3534 17.4738 89.316 15 86.3534 15C83.3506 15 80.3534 17.4738 80.3534 21C80.3534 24.4901 83.3506 27 86.3534 27C89.316 27 91.3534 24.4901 91.3534 21Z" fill="#4285F4"/>
<path d="M102.353 1V30H98.3534V1H102.353Z" fill="#34A853"/>
<path d="M119.353 24L123.353 27C122.22 28.6276 119.072 31 114.353 31C108.502 31 104.353 26.6087 104.353 21C104.353 15.0532 109.045 11 114.353 11C119.699 11 122.499 14.7683 123.353 17V18L109.353 24C110.408 26.0063 112.054 27 114.353 27C116.657 27 118.183 25.6682 119.353 24ZM108.353 21L118.353 17C117.847 15.7511 116.146 15 114.353 15C112.054 15 108.237 17.1407 108.353 21Z" fill="#EA4335"/>
<path d="M16 18V14H30C30.1383 14.7381 30 16.0549 30 17C30 20.1774 28.7748 24.2006 26 27C23.301 29.8354 20.5682 31 16 31C7.53281 31 0 24.5421 0 16C0 7.4579 7.53281 0 16 0C20.6842 0 23.4929 1.58319 26 4L23 7C21.2022 5.29878 19.3369 4 16 4C9.8169 4 5 9.7622 5 16C5 22.2378 9.8169 27 16 27C20.0105 27 21.5368 25.4762 23 24C24.1867 22.8028 25.6922 20.3358 26 18H16Z" fill="#4285F4"/>
</svg>
