<svg width="77" height="82" viewBox="0 0 77 82" fill="none" xmlns="http://www.w3.org/2000/svg">
<path d="M75.1176 45.2531C75.6848 44.7489 76 44.0556 76.063 43.2362C76.126 41.5975 74.9285 40.274 73.2898 40.1479C72.5335 40.0849 71.7772 40.4 71.2099 40.8412L18.3936 69.7704C17.1961 70.2747 16.1247 71.157 15.4314 72.3545C13.6036 75.3798 14.612 79.2875 17.7003 81.1152C19.8433 82.3758 22.4273 82.2497 24.4442 80.9892C24.5702 80.8631 24.7593 80.8001 24.8854 80.674L74.0461 46.1355C74.2982 45.9464 74.9915 45.4422 75.1176 45.2531Z" fill="url(#paint0_linear_1_132)"/>
<path d="M75.2433 41.0303L35.0324 1.57567C34.15 0.630266 32.8895 0 31.4398 0C28.7297 0 26.5868 2.20593 26.5868 4.85305C26.5868 6.17661 27.091 7.31109 27.9104 8.19346C28.1625 8.44557 28.4146 8.63465 28.6667 8.82373L71.1466 45.1901C71.6508 45.6313 72.2811 45.9464 73.0374 46.0094C74.6761 46.0725 75.9997 44.875 76.1257 43.2363C76.1257 42.4169 75.8106 41.5976 75.2433 41.0303Z" fill="url(#paint1_linear_1_132)"/>
<path d="M36.3564 37.5008C36.2934 37.5008 11.524 17.9626 11.0197 17.6475L9.88526 17.0802C6.22972 15.6936 2.19601 17.5844 0.809425 21.24C-0.388081 24.4543 0.935478 27.9838 3.70865 29.6855C4.14984 29.9376 4.528 30.1267 4.96918 30.2528C5.22129 30.3788 33.5833 42.1018 33.5833 42.1018C34.7178 42.606 36.0413 42.2909 36.7976 41.3455C37.743 40.148 37.554 38.4462 36.3564 37.5008Z" fill="url(#paint2_linear_1_132)"/>
<path d="M31.4398 0C30.3683 0 29.3599 0.37816 28.5406 0.945399L3.45597 17.8365C3.39294 17.8996 3.32992 17.8996 3.32992 17.9626H3.26689C2.19544 18.7189 1.31306 19.8534 0.808851 21.1769C-0.577735 24.8325 1.31306 28.9292 4.96861 30.2528C7.23757 31.1352 9.69561 30.694 11.5234 29.3704C11.9646 29.0553 12.3427 28.7401 12.6579 28.362L34.4651 8.69767C35.5996 7.8153 36.3559 6.42872 36.3559 4.85305C36.3559 2.20593 34.1499 0 31.4398 0Z" fill="url(#paint3_linear_1_132)"/>
<path d="M22.1752 23.5718H54.3188V55.7154H22.1752V23.5718Z" fill="black"/>
<path d="M24.9482 49.6651H36.9863V51.6819H24.9482V49.6651ZM24.8221 32.0176L25.7675 31.1352C26.0196 31.4504 26.2718 31.6395 26.5869 31.6395C26.965 31.6395 27.1541 31.3873 27.1541 30.8831V27.5427H28.6037V30.8831C28.6037 31.5134 28.4147 32.0176 28.0995 32.3327C27.7844 32.6479 27.2802 32.837 26.6499 32.837C25.7045 32.9 25.2003 32.5218 24.8221 32.0176ZM28.9189 27.6058H33.1417V28.8033H30.3685V29.6226H32.8896V30.7571H30.3685V31.5764H33.2047V32.837H28.9819L28.9189 27.6058ZM35.0325 28.8663H33.4568V27.6058H38.0577V28.8663H36.4821V32.837H35.0325V28.8663ZM24.9482 34.0345H27.6583C28.2886 34.0345 28.7928 34.2235 29.108 34.4757C29.297 34.6647 29.4231 34.9799 29.4231 35.358C29.4231 35.9883 29.108 36.3034 28.6037 36.5555C29.234 36.7446 29.6122 37.1228 29.6122 37.8161C29.6122 38.6984 28.8558 39.2657 27.6583 39.2657H24.9482V34.0345ZM27.9735 35.6732C27.9735 35.358 27.7214 35.232 27.3432 35.232H26.3978V36.1774H27.2802C27.7214 36.1143 27.9735 35.9883 27.9735 35.6732ZM27.4693 37.1858H26.3348V38.1312H27.4693C27.9104 38.1312 28.1626 37.9421 28.1626 37.627C28.1626 37.3119 27.9104 37.1858 27.4693 37.1858ZM29.8643 34.0345H32.3223C33.1417 34.0345 33.6459 34.2235 34.024 34.6017C34.3392 34.9168 34.4652 35.295 34.4652 35.7992C34.4652 36.6186 34.024 37.1228 33.3938 37.4379L34.6543 39.2657H33.0156L31.9442 37.69H31.3139V39.2657H29.8643V34.0345ZM32.2593 36.5555C32.7635 36.5555 33.0156 36.3034 33.0156 35.9253C33.0156 35.4841 32.7005 35.295 32.2593 35.295H31.3139V36.5555H32.2593Z" fill="white"/>
<path d="M36.1673 34.0342H37.5539L39.7599 39.3285H38.1842L37.806 38.3831H35.7892L35.411 39.3285H33.8984L36.1673 34.0342ZM37.4279 37.1855L36.8606 35.7359L36.2934 37.1855H37.4279ZM39.9489 34.0342H41.3985V39.2654H39.9489V34.0342ZM41.7767 34.0342H43.1003L45.2432 36.8074V34.0342H46.6928V39.2654H45.4323L43.2263 36.4292V39.3285H41.7767V34.0342ZM46.8188 38.5091L47.6382 37.5637C48.1424 38.0049 48.7096 38.194 49.3399 38.194C49.7181 38.194 49.9702 38.0679 49.9702 37.8158C49.9702 37.5637 49.7811 37.5007 49.0878 37.3116C47.9533 37.0595 47.134 36.7444 47.134 35.6729C47.134 34.7275 47.8903 33.9712 49.1508 33.9712C50.0332 33.9712 50.7265 34.2233 51.2937 34.6645L50.5374 35.6729C50.0332 35.3578 49.529 35.1687 49.0878 35.1687C48.7096 35.1687 48.5836 35.2947 48.5836 35.4838C48.5836 35.7359 48.7727 35.799 49.466 35.988C50.6635 36.2401 51.4198 36.6183 51.4198 37.6267C51.4198 38.6982 50.6004 39.3285 49.2769 39.3285C48.3315 39.3915 47.4491 39.0763 46.8188 38.5091Z" fill="white"/>
<defs>
<linearGradient id="paint0_linear_1_132" x1="20.4365" y1="67.9697" x2="62.7587" y2="42.4255" gradientUnits="userSpaceOnUse">
<stop stop-color="#FCEE39"/>
<stop offset="1" stop-color="#F37B3D"/>
</linearGradient>
<linearGradient id="paint1_linear_1_132" x1="30.8475" y1="6.91539" x2="73.2602" y2="44.047" gradientUnits="userSpaceOnUse">
<stop stop-color="#EF5A6B"/>
<stop offset="0.57" stop-color="#F26F4E"/>
<stop offset="1" stop-color="#F37B3D"/>
</linearGradient>
<linearGradient id="paint2_linear_1_132" x1="33.7384" y1="34.6078" x2="10.8928" y2="20.3409" gradientUnits="userSpaceOnUse">
<stop stop-color="#7C59A4"/>
<stop offset="0.3852" stop-color="#AF4C92"/>
<stop offset="0.7654" stop-color="#DC4183"/>
<stop offset="0.957" stop-color="#ED3D7D"/>
</linearGradient>
<linearGradient id="paint3_linear_1_132" x1="33.2508" y1="5.87935" x2="10.0376" y2="25.0517" gradientUnits="userSpaceOnUse">
<stop stop-color="#EF5A6B"/>
<stop offset="0.364" stop-color="#EE4E72"/>
<stop offset="1" stop-color="#ED3D7D"/>
</linearGradient>
</defs>
</svg>
