<svg width="103" height="16" viewBox="0 0 103 16" fill="none" xmlns="http://www.w3.org/2000/svg">
<path d="M2.33008 0.78125V15H0.533203V0.78125H2.33008ZM7.125 7.17773V8.7207H1.98828V7.17773H7.125ZM7.93555 0.78125V2.32422H1.98828V0.78125H7.93555ZM16.5352 13.4668V15H10.6367V13.4668H16.5352ZM10.959 0.78125V15H9.16211V0.78125H10.959ZM22.4785 2.04102L18.5918 15H16.7559L21.3359 0.78125H22.4883L22.4785 2.04102ZM25.623 15L21.7363 2.04102L21.7168 0.78125H22.8789L27.459 15H25.623ZM25.623 9.73633V11.2793H18.7676V9.73633H25.623ZM31.7129 0.78125V15H29.9355V0.78125H31.7129ZM35.4531 0.78125V2.32422H26.2051V0.78125H35.4531ZM41.6309 11.1816C41.6699 10.8887 41.6602 10.6348 41.6016 10.4199C41.5495 10.2051 41.4518 10.0163 41.3086 9.85352C41.1719 9.68424 41.0026 9.53451 40.8008 9.4043C40.599 9.26758 40.3711 9.14062 40.1172 9.02344C39.6484 8.79557 39.2122 8.54492 38.8086 8.27148C38.4049 7.99805 38.0469 7.6888 37.7344 7.34375C37.4284 6.9987 37.1973 6.60482 37.041 6.16211C36.8848 5.71289 36.8262 5.20833 36.8652 4.64844C36.9108 4.01042 37.0736 3.4375 37.3535 2.92969C37.6335 2.42188 37.998 1.99219 38.4473 1.64062C38.8965 1.28255 39.401 1.01562 39.9609 0.839844C40.5208 0.657552 41.1068 0.572917 41.7188 0.585938C42.5716 0.605469 43.2878 0.813802 43.8672 1.21094C44.4466 1.60156 44.8763 2.12565 45.1562 2.7832C45.4427 3.43424 45.5729 4.16667 45.5469 4.98047L42.7637 4.9707C42.7832 4.6582 42.7637 4.34245 42.7051 4.02344C42.653 3.70443 42.5293 3.44401 42.334 3.24219C42.1452 3.03385 41.8555 2.92643 41.4648 2.91992C41.1198 2.91992 40.8171 2.99805 40.5566 3.1543C40.2962 3.30404 40.0846 3.50911 39.9219 3.76953C39.7591 4.02995 39.6549 4.32292 39.6094 4.64844C39.5768 4.90234 39.6029 5.13021 39.6875 5.33203C39.7786 5.53385 39.9023 5.71615 40.0586 5.87891C40.2214 6.03516 40.4036 6.17839 40.6055 6.30859C40.8073 6.4388 41.0091 6.54622 41.2109 6.63086C41.6992 6.87826 42.1484 7.13867 42.5586 7.41211C42.9753 7.68555 43.3268 8.0013 43.6133 8.35938C43.9062 8.71094 44.1178 9.11784 44.248 9.58008C44.3848 10.0423 44.4336 10.5697 44.3945 11.1621C44.3424 11.8197 44.1829 12.3991 43.916 12.9004C43.6556 13.4017 43.3105 13.8281 42.8809 14.1797C42.4512 14.5247 41.9596 14.7852 41.4062 14.9609C40.8529 15.1367 40.2604 15.2181 39.6289 15.2051C38.9518 15.1855 38.3464 15.0586 37.8125 14.8242C37.2786 14.5833 36.8294 14.2546 36.4648 13.8379C36.1068 13.4147 35.8398 12.9199 35.6641 12.3535C35.4883 11.7806 35.4199 11.1654 35.459 10.5078L38.2422 10.5176C38.2227 10.8236 38.2259 11.1198 38.252 11.4062C38.278 11.6927 38.3496 11.9434 38.4668 12.1582C38.584 12.373 38.7533 12.5456 38.9746 12.6758C39.196 12.806 39.4889 12.8711 39.8535 12.8711C40.1986 12.8711 40.4948 12.7995 40.7422 12.6562C40.9896 12.5065 41.1882 12.3047 41.3379 12.0508C41.4876 11.7969 41.5853 11.5072 41.6309 11.1816ZM53.7168 6.54297L53.2969 8.90625H47.623L48.0332 6.54297H53.7168ZM49.8398 0.78125L47.3789 15H44.5859L47.0371 0.78125H49.8398ZM56.7246 0.78125L54.2539 15H51.4902L53.9609 0.78125H56.7246ZM62.6875 3.45703L57.7559 15H54.7285L61.5059 0.78125H63.4102L62.6875 3.45703ZM63.0488 15L62.0723 3.22266L62.2285 0.78125H64.0352L65.9199 15H63.0488ZM64.0547 9.69727L63.6348 12.0703H57.3848L57.8047 9.69727H64.0547ZM68.7188 0.78125L73.0156 0.791016C73.8685 0.817057 74.5846 1.0026 75.1641 1.34766C75.75 1.6862 76.1829 2.16797 76.4629 2.79297C76.7493 3.41146 76.8568 4.14714 76.7852 5C76.7266 5.70964 76.5736 6.33138 76.3262 6.86523C76.0853 7.39258 75.7467 7.85482 75.3105 8.25195C74.8743 8.64258 74.3405 8.98438 73.709 9.27734L72.7617 9.78516H69.0312L69.4414 7.41211L71.8047 7.43164C72.2409 7.42513 72.612 7.32422 72.918 7.12891C73.224 6.93359 73.4648 6.66992 73.6406 6.33789C73.8229 6.00586 73.9401 5.63802 73.9922 5.23438C74.0312 4.92839 74.0345 4.61914 74.002 4.30664C73.9759 3.99414 73.8783 3.73047 73.709 3.51562C73.5397 3.30078 73.2695 3.18359 72.8984 3.16406L71.1113 3.1543L69.0605 15H66.2676L68.7188 0.78125ZM72.5859 15L71.1504 8.66211L73.9629 8.65234L75.5645 14.8438V15H72.5859ZM81.3613 0.78125L78.8906 15H76.1172L78.5879 0.78125H81.3613ZM92.3633 0.78125L89.8926 15H87.168L84.668 5.52734L83.0273 15H80.2344L82.6855 0.78125H85.4199L87.9395 10.2637L89.5801 0.78125H92.3633ZM101.764 7.5293L100.875 13.3887C100.484 13.8249 100.025 14.1764 99.498 14.4434C98.9707 14.7103 98.4141 14.9023 97.8281 15.0195C97.2422 15.1432 96.666 15.2018 96.0996 15.1953C95.2272 15.1823 94.5013 15.0033 93.9219 14.6582C93.3424 14.3132 92.89 13.8542 92.5645 13.2812C92.2454 12.7018 92.0371 12.054 91.9395 11.3379C91.8483 10.6217 91.8516 9.8763 91.9492 9.10156L92.3203 6.67969C92.4375 5.87891 92.6361 5.11068 92.916 4.375C93.196 3.63932 93.5671 2.98177 94.0293 2.40234C94.4915 1.82292 95.0579 1.37044 95.7285 1.04492C96.4056 0.712891 97.1966 0.556641 98.1016 0.576172C99.0911 0.602214 99.8822 0.813802 100.475 1.21094C101.067 1.60156 101.5 2.15169 101.773 2.86133C102.047 3.56445 102.19 4.37826 102.203 5.30273H99.498C99.5046 4.89909 99.4753 4.52148 99.4102 4.16992C99.3451 3.81185 99.2051 3.52214 98.9902 3.30078C98.7754 3.07292 98.4303 2.94922 97.9551 2.92969C97.4408 2.91016 97.0111 3.01432 96.666 3.24219C96.3275 3.47005 96.0508 3.76953 95.8359 4.14062C95.6211 4.51172 95.4551 4.92188 95.3379 5.37109C95.2272 5.8138 95.1491 6.24349 95.1035 6.66016L94.752 9.11133C94.7064 9.48242 94.6706 9.87956 94.6445 10.3027C94.625 10.7259 94.6576 11.1296 94.7422 11.5137C94.8333 11.8913 95.0059 12.2038 95.2598 12.4512C95.5137 12.6921 95.8913 12.8158 96.3926 12.8223C96.6204 12.8223 96.8288 12.8027 97.0176 12.7637C97.2129 12.7181 97.3984 12.6562 97.5742 12.5781C97.7565 12.4935 97.9388 12.4023 98.1211 12.3047L98.6387 9.6875H96.6465L97.0273 7.5293H101.764Z" fill="#282828"/>
</svg>
