<svg width="149" height="30" viewBox="0 0 149 30" fill="none" xmlns="http://www.w3.org/2000/svg">
<path d="M5 20C5 21.7246 5.50706 23.199 6 24C6.6463 25.0492 7.01725 25 8 25C9.26756 25 10.7653 25.1021 13 22C14.7902 19.5136 16.5806 16.188 18 14L21 10C22.6697 7.42565 24.7841 3.93979 27 2C28.809 0.416754 30.0361 0 32 0C35.2972 0 38.5963 2.40314 41 6C43.6306 9.93927 45 14.8796 45 20C45 23.044 44.0172 25.233 43 27C42.0173 28.7089 40.2221 30 37 30V25C39.7589 25 41 22.912 41 20C41 15.8503 40.1236 11.2906 38 8C36.493 5.66597 34.1486 4 32 4C29.6761 4 28.1016 5.86335 26 9C24.8827 10.6665 23.2879 12.7084 22 15L21 17C18.1519 22.0686 17.4241 23.0948 16 25C13.504 28.3361 10.8058 30 8 30C4.67148 30 3.30355 28.1801 2 26C0.935874 24.2236 0 22.656 0 20H5Z" fill="#0081FB"/>
<path d="M4 6C6.21933 2.55236 9.32657 0 13 0C15.1274 0 17.7916 0.182723 20 2C22.4157 3.98691 24.7879 7.60785 28 13L29 15C31.7804 19.6681 33.0742 21.8675 34 23C35.1907 24.4545 35.9168 25 37 25C39.7477 25 41 22.912 41 20H45C45 23.044 44.013 25.233 43 27C42.0212 28.7089 40.209 30 37 30C35.0051 30 33.9544 29.8581 32 28C30.4976 26.5738 28.3512 23.2775 27 21L23 15C20.9833 11.6042 19.0707 9.1466 18 8C16.8483 6.76702 15.3627 5 13 5C11.0877 5 9.35903 5.93141 8 8L4 6Z" fill="url(#paint0_linear_1_23)"/>
<path d="M13 5C11.0747 5 9.36826 5.96069 8 8C6.0653 10.8817 5 15.878 5 20C5 21.7002 5.50573 22.2103 6 23L2 26C0.933011 24.2487 0 21.6184 0 19C0 14.2385 1.48159 9.83241 4 6C6.2344 2.60116 9.30163 0 13 0V5Z" fill="url(#paint1_linear_1_23)"/>
<path d="M55 1H61L70 18L80 1H85V29H81V8L72 23H68L60 8V29H55V1ZM100 12C96.7072 12 94.4747 13.9265 94 17H105C104.77 13.8339 103.371 12 100 12ZM89 19C89 12.5329 93.7904 8 100 8C106.108 8 109 12.1281 109 19V21H94C94.553 24.3434 96.4284 26 100 26C102.849 26 105.311 25.5925 107 24L109 27C106.702 29.1165 103.7 30 100 30C93.2781 30 89 25.1612 89 19ZM115 12H111V8H115V2H119V8H126V12H119V22C119 25.2587 120.443 26 123 26C124.167 26 125.012 26.1647 126 26V29C124.769 29.3483 123.272 30 122 30C117.217 30 115 27.2386 115 22V12ZM145 16C144.11 13.7502 141.917 12 139 12C135.209 12 133 14.6117 133 19C133 23.2785 135.198 26 139 26C141.989 26 144.149 24.1667 145 22V16ZM149 29H145V27C143.784 28.7494 141.583 30 138 30C132.238 30 128 25.3008 128 19C128 12.6396 132.086 8 138 8C140.923 8 143.451 8.93373 145 11V8H149V29Z" fill="#192830"/>
<defs>
<linearGradient id="paint0_linear_1_23" x1="9.69016" y1="18.377" x2="40.5501" y2="19.9235" gradientUnits="userSpaceOnUse">
<stop stop-color="#0064E1"/>
<stop offset="0.4" stop-color="#0064E1"/>
<stop offset="0.83" stop-color="#0073EE"/>
<stop offset="1" stop-color="#0082FB"/>
</linearGradient>
<linearGradient id="paint1_linear_1_23" x1="7.06095" y1="21.5234" x2="7.06095" y2="10.2198" gradientUnits="userSpaceOnUse">
<stop stop-color="#0082FB"/>
<stop offset="1" stop-color="#0064E0"/>
</linearGradient>
</defs>
</svg>
