<svg width="112" height="108" viewBox="0 0 112 108" fill="none" xmlns="http://www.w3.org/2000/svg">
<ellipse cx="56" cy="54.5" rx="56" ry="53.5" fill="#D2D2D2"/>
<path d="M23.5 20.75V89H18.1094V20.75H23.5ZM49.6562 52.0625V57.1719H21.8594V52.0625H49.6562ZM53.5938 20.75V25.7656H21.8594V20.75H53.5938ZM86.7625 71.0469C86.7625 69.8281 86.6531 68.7188 86.4344 67.7188C86.2156 66.7188 85.7469 65.7969 85.0281 64.9531C84.3406 64.1094 83.325 63.2656 81.9813 62.4219C80.6688 61.5781 78.95 60.7031 76.825 59.7969C74.2938 58.7344 71.8406 57.6094 69.4656 56.4219C67.0906 55.2031 64.95 53.7969 63.0438 52.2031C61.1375 50.6094 59.6219 48.7344 58.4969 46.5781C57.4031 44.3906 56.8563 41.8281 56.8563 38.8906C56.8563 36.0156 57.3719 33.4062 58.4031 31.0625C59.4656 28.7188 60.9656 26.7187 62.9031 25.0625C64.8406 23.375 67.1063 22.0781 69.7 21.1719C72.325 20.2656 75.2469 19.8125 78.4656 19.8125C82.8406 19.8125 86.6219 20.7187 89.8094 22.5312C93.0281 24.3438 95.5125 26.8281 97.2625 29.9844C99.0438 33.1406 99.9344 36.7656 99.9344 40.8594H86.2469C86.2469 38.9219 85.9656 37.2188 85.4031 35.75C84.8719 34.25 84.0125 33.0781 82.825 32.2344C81.6375 31.3906 80.1063 30.9688 78.2313 30.9688C76.4813 30.9688 75.0281 31.3281 73.8719 32.0469C72.7469 32.7344 71.9031 33.6875 71.3406 34.9062C70.8094 36.0938 70.5438 37.4375 70.5438 38.9375C70.5438 40.0625 70.8094 41.0781 71.3406 41.9844C71.9031 42.8594 72.6688 43.6562 73.6375 44.375C74.6063 45.0625 75.7469 45.7344 77.0594 46.3906C78.4031 47.0469 79.8719 47.6875 81.4656 48.3125C84.5594 49.5312 87.2938 50.875 89.6688 52.3438C92.0438 53.7812 94.0281 55.4062 95.6219 57.2188C97.2156 59 98.4188 61.0156 99.2313 63.2656C100.044 65.5156 100.45 68.0781 100.45 70.9531C100.45 73.7969 99.95 76.3906 98.95 78.7344C97.9813 81.0469 96.5594 83.0469 94.6844 84.7344C92.8094 86.3906 90.5438 87.6719 87.8875 88.5781C85.2625 89.4844 82.325 89.9375 79.075 89.9375C75.9188 89.9375 72.9344 89.5 70.1219 88.625C67.3094 87.7188 64.825 86.3594 62.6688 84.5469C60.5438 82.7031 58.8719 80.375 57.6531 77.5625C56.4344 74.7188 55.825 71.3594 55.825 67.4844H69.5594C69.5594 69.5469 69.7625 71.3125 70.1688 72.7812C70.575 74.2188 71.2 75.375 72.0438 76.25C72.8875 77.0938 73.9188 77.7344 75.1375 78.1719C76.3875 78.5781 77.8094 78.7812 79.4031 78.7812C81.2156 78.7812 82.6531 78.4375 83.7156 77.75C84.8094 77.0625 85.5906 76.1406 86.0594 74.9844C86.5281 73.8281 86.7625 72.5156 86.7625 71.0469Z" fill="#282828"/>
</svg>
